<!DOCTYPE html>
<html xmlns="http://www.w3.org/1999/xhtml"  lang="en">
<head>
<meta charset="UTF-8" />
<meta name="viewport" content="width=device-width, initial-scale=1"/>

<title>How to remove unnecessary audio from a video file | notes to self</title>



<link href="http://kerma.codes/index.xml" rel="alternate" type="application/rss+xml" title="notes to self" />

<link rel="stylesheet" href="/css/style.css"/><link rel='stylesheet' href='http://kerma.codes/css/custom.css'><link rel="apple-touch-icon" sizes="180x180" href="/apple-touch-icon.png">
<link rel="icon" type="image/png" sizes="32x32" href="/favicon-32x32.png">
<link rel="icon" type="image/png" sizes="16x16" href="/favicon-16x16.png">
<link rel="manifest" href="/site.webmanifest">
<link rel="mask-icon" href="/safari-pinned-tab.svg" color="#5bbad5">
<meta name="msapplication-TileColor" content="#da532c">
<meta name="theme-color" content="#ffffff">
</head>
<body>
<section class="section">
  <div class="container">
    <nav class="nav">
      <div class="nav-left">
        <a class="nav-item" href="http://kerma.codes">
          <h1 class="title is-4">notes to self</h1>
        </a>
      </div>
      <div class="nav-right">
        <nav class="nav-item level is-mobile"></nav>
      </div>
    </nav>

    <nav class="nav">
      

      
    </nav>

  </div>
</section>
<section class="section">
  <div class="container">
    <div class="subtitle tags is-6 is-pulled-right">
      
      
<a class="subtitle is-6" href="/tags/audiovideo">#audiovideo</a>



      
    </div>
    <h2 class="subtitle is-6">July 30, 2013</h2>
    <h1 class="title">How to remove unnecessary audio from a video file</h1>
    
    <div class="content">
      <p>Once in a while I encounter a video file which has more than one audio stream attached to it. Usually
I&rsquo;m only interested in one of those and want to get rid of the others. Specially if the first one is not
the one I&rsquo;m interested in. Xbox for example does provide an easy way to selecting some other stream besides the
first one.</p>

<p>The wonderful open-source project <a href="https://libav.org/">libav</a> provides the tools we need:
<code>avprobe</code> and <code>avconv</code>. Let&rsquo;s fire up <code>avprobe</code> first:</p>

<pre><code>$ avprobe something_nice.avi

avprobe version 0.8.6-4:0.8.6-0ubuntu0.12.04.1, Copyright (c) 
2007-2013 the Libav developers built on Apr  2 2013 17:00:59 
with gcc 4.6.3
Input #0, avi, from 'something_nice.avi':
  Metadata:
    encoder         : VirtualDubModRus 1.5.10.2 (build 2542/release)
    title           : Something Nice
    artist          : Released
    genre           : Action
    album           : Movie
    comment         : DVD
  Duration: 01:54:04.25, start: 0.000000, bitrate: 2738 kb/s
    Stream #0.0: Video: mpeg4 (Advanced Simple Profile), yuv420p,
    720x304 [PAR 1:1 DAR 45:19], 23.98 tbr, 23.98 tbn, 23.98 tbc
    Stream #0.1: Audio: ac3, 48000 Hz, 5.1, s16, 448 kb/s
    Stream #0.2: Audio: ac3, 48000 Hz, 5.1, s16, 448 kb/s
</code></pre>

<p>I&rsquo;m interested in the second audio stream, which is in the language I understand. avconv helps:</p>

<pre><code>$ avconv -i something_nice.avi -map 0:0 -c:v copy -map 0:2 -c:a \
copy something_nice_eng.avi
</code></pre>

      
    </div>
    
  </div>
</section>

<section class="section">
  <div class="container">
    <aside><div id="disqus_thread"></div></aside>
  
    <div id="show_comments"><a id="load_comments">Comments</a></div>
  
    <script type="text/javascript">
      var disqus_shortname = 'kerma';
      function disqus() {
        var dsq = document.createElement('script'); dsq.type = 'text/javascript'; dsq.async = true;
        dsq.src = '//' + disqus_shortname + '.disqus.com/embed.js';
        (document.getElementsByTagName('head')[0] || document.getElementsByTagName('body')[0]).appendChild(dsq);
      }
  
      
      var hash = window.location.hash.substr(1);
      if ((hash.length > 8) && (hash.substring(0, 8) === "comment-")) {
        disqus();
        document.getElementById("show_comments").style.display = "none";
      } else {
        document.getElementById('load_comments').onclick = function() {
          disqus();
          document.getElementById("show_comments").style.display = "none";
        };
      }
  

    </script>
    <noscript>Please enable JavaScript to view the <a href="https://disqus.com/?ref_noscript" rel="nofollow">comments powered by Disqus.</a></noscript>
  </div>
</section>


<section class="section">
  <div class="container has-text-centered">
    <p></p>
    
      <p>Powered by <a href="https://gohugo.io/">Hugo</a> &amp; <a href="https://github.com/ribice/kiss">Kiss</a>.</p>
    
  </div>
</section>



</body>
</html>

